HIERARCHY
ROOT Hips
{
    OFFSET 0.000000 0.000000 0.000000
    CHANNELS 6 Xposition Yposition Zposition Zrotation Xrotation Yrotation
        JOINT Chest
        {
            OFFSET -0.000000 28.596201 -0.000000
            CHANNELS 3 Zrotation Xrotation Yrotation
            JOINT Neck
            {
                OFFSET -0.000000 20.833183 0.000000
                CHANNELS 3 Zrotation Xrotation Yrotation
                JOINT Head
                {
                    OFFSET -0.000000 10.327778 0.000000
                    CHANNELS 3 Zrotation Xrotation Yrotation
                    End Site
                    {
                        OFFSET -0.000000 15.961117 0.000000
                    }
                }
            }
            JOINT LeftCollar
            {
                OFFSET -0.000000 20.833183 0.000000
                CHANNELS 3 Zrotation Xrotation Yrotation
                JOINT LeftShoulder
                {
                    OFFSET 18.777777 -0.000000 0.000000
                    CHANNELS 3 Zrotation Xrotation Yrotation
                    JOINT LeftElbow
                    {
                        OFFSET 23.016544 0.000000 0.000000
                        CHANNELS 3 Zrotation Xrotation Yrotation
                        JOINT LeftWrist
                        {
                            OFFSET 24.619797 0.000000 0.000000
                            CHANNELS 3 Zrotation Xrotation Yrotation
                            End Site
                            {
                                OFFSET 0.000000 -14.083333 0.000000
                            }
                        }
                    }
                }
            }
            JOINT RightCollar
            {
                OFFSET -0.000000 20.833183 0.000000
                CHANNELS 3 Zrotation Xrotation Yrotation
                JOINT RightShoulder
                {
                    OFFSET -18.777777 0.000000 0.000000
                    CHANNELS 3 Zrotation Xrotation Yrotation
                    JOINT RightElbow
                    {
                        OFFSET -23.016544 0.000000 0.000000
                        CHANNELS 3 Zrotation Xrotation Yrotation
                        JOINT RightWrist
                        {
                            OFFSET -24.619797 0.000000 0.000000
                            CHANNELS 3 Zrotation Xrotation Yrotation
                            End Site
                            {
                                OFFSET -0.000000 -14.083333 0.000000
                            }
                        }
                    }
                }
            }
        }
    JOINT LeftHip
    {
        OFFSET 11.266668 0.000000 0.000000
        CHANNELS 3 Zrotation Xrotation Yrotation
        JOINT LeftKnee
        {
            OFFSET -0.000000 -40.535309 0.000000
            CHANNELS 3 Zrotation Xrotation Yrotation
            JOINT LeftAnkle
            {
                OFFSET -0.000000 -39.958225 0.000000
                CHANNELS 3 Zrotation Xrotation Yrotation
                End Site
                {
                    OFFSET -0.000000 -4.694444 15.961117
                }
            }
        }
    }
    JOINT RightHip
    {
        OFFSET -11.266668 0.000000 0.000000
        CHANNELS 3 Zrotation Xrotation Yrotation
        JOINT RightKnee
        {
            OFFSET -0.000000 -40.535309 0.000000
            CHANNELS 3 Zrotation Xrotation Yrotation
            JOINT RightAnkle
            {
                OFFSET -0.000000 -39.958225 0.000000
                CHANNELS 3 Zrotation Xrotation Yrotation
                End Site
                {
                    OFFSET -0.000000 -4.694444 15.961117
                }
            }
        }
    }
}
MOTION
Frames:    11
Frame Time:    0.010000
89.593925    58.823692    57.283653    24.175814    7.144980    -52.021091    -10.357877    1.934173    49.604786    -11.121005    -12.199076    -22.775787    -9.622949    -19.435553    -23.232401    -20.053778    -1.017022    5.591005    -44.344933    23.845842    22.848654    37.626102    -14.284437    -40.874729    143.522675    21.495493    27.350241    2.206273    0.222705    28.688908    19.513878    -23.029474    39.146843    -26.275398    -4.269460    17.095905    -75.258385    22.378487    176.207184    80.226685    -72.764778    31.341141    -76.058807    23.126186    47.424541    3.850544    -8.438262    32.618519    -32.254890    -3.415768    -21.416630    -37.394176    39.225929    13.793164    2.354866    3.215529    -7.917221    
89.502449    58.555950    58.236664    24.459970    7.597334    -51.367203    -11.302123    2.159382    49.797104    -10.670767    -12.318213    -22.854824    -9.857607    -20.284039    -23.465204    -20.125772    -0.984296    5.559614    -45.379704    24.413925    22.905851    35.163246    -12.609485    -39.163273    142.442139    20.434959    27.560690    1.001231    -0.066448    28.185246    18.496243    -23.970282    39.199299    -26.284113    -4.038435    16.254089    -75.142075    17.041599    174.210693    82.387207    -73.402016    33.269714    -77.700226    22.446146    46.960129    5.702939    -8.352829    33.431618    -31.657610    -3.857908    -21.905918    -38.475109    39.794422    13.987862    0.895013    3.539087    -7.310837    
89.398338    58.317585    59.140701    24.677141    8.055407    -50.756218    -12.148483    2.504136    49.925793    -10.262606    -12.395872    -22.869125    -9.990398    -21.120817    -23.617035    -20.209751    -0.972505    5.437344    -46.399151    24.767792    23.011099    32.740002    -11.093711    -37.429153    141.834167    19.446609    27.275593    -0.078304    -0.309125    27.619839    17.502468    -24.736002    39.208748    -26.304148    -3.847898    15.593679    -75.000092    12.319879    172.943405    84.399849    -73.939621    35.118755    -79.183243    21.882359    46.456806    7.435395    -8.177467    34.072948    -31.082916    -4.265819    -22.340395    -39.403641    40.358974    14.255366    -0.301577    3.779623    -6.881327    
89.278114    58.104324    60.002007    24.829575    8.500326    -50.189499    -12.908099    2.956912    49.995918    -9.902664    -12.421834    -22.838079    -10.020274    -21.937485    -23.703701    -20.293337    -0.945899    5.237246    -47.434013    24.875320    23.170870    30.405828    -9.731004    -35.668659    141.564194    18.523266    26.556831    -1.012470    -0.498852    27.021885    16.533257    -25.296659    39.170120    -26.384262    -3.712286    15.144276    -74.721977    8.410668    172.555588    86.205406    -74.372147    36.859909    -80.553490    21.449684    45.981327    8.986426    -7.981949    34.537910    -30.529762    -4.602046    -22.680666    -40.136288    40.894363    14.451382    -1.189631    3.981872    -6.626148    
89.140198    57.913738    60.826187    24.923918    8.916500    -49.672569    -13.599369    3.503508    50.015091    -9.591745    -12.387443    -22.781204    -9.956699    -22.728195    -23.743444    -20.353294    -0.906856    4.996589    -48.518902    24.821209    23.352957    28.264988    -8.544949    -33.882286    141.486649    17.770838    25.581049    -1.785217    -0.637303    26.423601    15.601937    -25.633587    39.084953    -26.562696    -3.649790    14.913160    -74.254379    5.404416    173.152374    87.742310    -74.696175    38.448193    -81.844200    21.148808    45.578556    10.305460    -7.834212    34.848389    -29.997427    -4.843222    -22.901360    -40.645203    41.376011    14.472799    -1.754278    4.186393    -6.541821    
88.984489    57.744808    61.617767    24.969257    9.292633    -49.213676    -14.244570    4.128987    49.994938    -9.326465    -12.283992    -22.716276    -9.814040    -23.488693    -23.755747    -20.362507    -0.873254    4.768761    -49.687782    24.743017    23.532345    26.396679    -7.548375    -32.087597    141.476105    17.268023    24.549206    -2.386960    -0.727071    25.858580    14.739619    -25.745634    38.963219    -26.858870    -3.651858    14.893174    -73.598511    3.265992    174.782120    88.958809    -74.911163    39.831520    -83.075600    20.968168    45.271534    11.362901    -7.789211    35.041321    -29.485771    -4.980656    -22.993319    -40.922371    41.781742    14.263497    -2.013423    4.427571    -6.619070    
88.811287    57.597343    62.380611    24.972677    9.619686    -48.822048    -14.864924    4.817936    49.953770    -9.101892    -12.100926    -22.659441    -9.611000    -24.215874    -23.759220    -20.300449    -0.828466    4.611656    -50.956448    24.770515    23.667196    24.844507    -6.733706    -30.299541    141.423584    17.025558    23.646996    -2.811702    -0.772447    25.359108    13.982579    -25.642176    38.820156    -27.271439    -3.707831    15.063532    -72.830009    1.901481    177.444351    89.806450    -75.017845    40.946556    -84.255653    20.887789    45.062752    12.160095    -7.877307    35.156181    -28.995029    -5.014390    -22.958227    -40.978321    42.093750    13.799893    -2.011532    4.731281    -6.832279    
88.621201    57.471786    63.117683    24.939489    9.891361    -48.504704    -15.476800    5.549891    49.912579    -8.913593    -11.830988    -22.622288    -9.370845    -24.901743    -23.770325    -20.152439    -0.796727    4.576804    -52.340649    25.072557    23.735155    23.641893    -6.104732    -28.571606    141.260437    17.095583    23.026760    -3.057898    -0.772407    24.951632    13.369923    -25.343149    38.676189    -27.778769    -3.816657    15.394916    -72.119530    1.229896    -178.894516    90.251945    -75.020355    41.734547    -85.380844    20.883158    44.939594    12.728764    -8.100347    35.224545    -28.526270    -4.951317    -22.807615    -40.839249    42.298550    13.056510    -1.809398    5.114913    -7.113016    
88.416054    57.369469    63.829971    24.876865    10.107702    -48.263603    -16.087587    6.297130    49.888660    -8.766733    -11.477468    -22.614815    -9.116078    -25.527487    -23.800526    -19.913626    -0.817042    4.702887    -53.852482    25.792507    23.748814    22.821550    -5.594504    -26.957705    140.892929    17.494976    22.823923    -3.125247    -0.731250    24.651562    12.927174    -24.867176    38.551434    -28.352823    -4.005793    15.838585    -71.750099    1.220161    -174.308182    90.301086    -74.928879    42.171227    -86.438255    20.929176    44.881287    13.122260    -8.436303    35.265247    -28.081652    -4.808443    -22.564350    -40.544426    42.389748    11.990514    -1.475999    5.585419    -7.340720    
88.199356    57.292587    64.516068    24.796219    10.276549    -48.094250    -16.695650    7.028077    49.890759    -8.669384    -11.057138    -22.641390    -8.869784    -26.067722    -23.856569    -19.595732    -0.834431    5.009231    -55.458462    26.935413    23.682257    22.310638    -5.213699    -25.458445    140.367722    18.074495    22.970079    -3.021875    -0.640520    24.462774    12.675784    -24.248173    38.468891    -28.981113    -4.227703    16.336712    -72.040138    1.756823    -168.929993    90.006828    -74.761124    42.283180    -87.408302    21.005865    44.866447    13.402791    -8.848850    35.284412    -27.664787    -4.613957    -22.262537    -40.143066    42.372673    10.581625    -1.080746    6.135839    -7.390726    
87.975777    57.243835    65.172554    24.710503    10.412603    -47.985935    -17.290524    7.714422    49.919548    -8.628971    -10.597095    -22.701706    -8.653242    -26.498457    -23.939051    -19.211899    -0.870798    5.488752    -57.128242    28.513498    23.542288    22.098492    -4.940325    -24.159410    139.662857    18.794018    23.434435    -2.728691    -0.560622    24.379021    12.576043    -23.458479    38.425606    -29.703716    -4.471173    16.787579    -73.293388    2.638699    -162.982040    89.455757    -74.541199    42.139061    -88.270187    21.103245    44.877884    13.628638    -9.298139    35.278240    -27.277834    -4.403246    -21.943274    -39.690140    42.268379    8.887527    -0.682974    6.741349    -7.201853    
